<svg id="Nose" xmlns="http://www.w3.org/2000/svg" viewBox="0 0 240.97 250.98"><path id="Nose1" d="M1344.4,434.46c-44.62-37.51-65.61-92.56-93.62-142.22-6.39-17.84-11.08-17.78-29.5-22.16-8.5.36-18.68,4.88-23.82,6.3-3.1.85-8.44,11.35-9.56,15-9,29.67-14.59,50.27-27.26,74.53-10.61,24.73-26.8,33.05-44.05,51-16.55,18.63-10.11,42.46,12.81,51.61,9.48,4.36,18,4.06,28.44,5.21.92.1,12.27,7.09,13,7.65.1.08,7.9,8.85,8,8.92,11.28,13.69,20.3,29.94,39.9,30.67,30,1.9,34.55-21.78,53-36,14.6-7.58,34.22,1.11,50.5-6.3C1340.16,473.15,1355.84,452.5,1344.4,434.46Z" transform="translate(-1107.32 -270.08)" fill="#470094"/></svg>